<svg width="16" height="16" viewBox="0 0 16 16" fill="none" xmlns="http://www.w3.org/2000/svg">
<g clip-path="url(#clip0_802_55)">
<path d="M0.738281 10.8462V5.15375H4.56313V6.15784H1.84505V7.37541H4.07485V8.3795H1.84505V9.84216H4.56313V10.8462H0.738281Z" fill="#FC5E38"/>
<path d="M5.6198 10.8462V5.15375H9.44465V6.15784H6.72657V10.8462H5.6198Z" fill="#FC5E38"/>
<path d="M12.4948 10.9648C12.0554 10.9648 11.662 10.9003 11.3148 10.7711C10.9703 10.6394 10.6773 10.4404 10.4359 10.1742C10.1972 9.90804 10.0154 9.57334 9.89065 9.17012L10.973 8.90922C11.0761 9.21229 11.2538 9.46266 11.506 9.66031C11.7583 9.85797 12.0635 9.95548 12.4216 9.95284C12.6738 9.94757 12.9139 9.89882 13.1418 9.80658C13.3724 9.71434 13.5582 9.57334 13.6992 9.38359C13.8023 9.25709 13.881 9.11873 13.9352 8.96851C13.9922 8.81566 14.0329 8.65885 14.0573 8.49809H12.0065V7.494H14.0654C14.0166 7.2041 13.9217 6.94979 13.7806 6.73105C13.6395 6.51231 13.4551 6.34232 13.2272 6.22109C12.9994 6.09986 12.7308 6.04189 12.4216 6.04716C12.0554 6.04979 11.7434 6.14994 11.4857 6.34759C11.2307 6.54525 11.0544 6.80879 10.9567 7.13822L9.84996 6.988C9.99644 6.36604 10.2989 5.88508 10.7573 5.54511C11.2158 5.20514 11.7949 5.03516 12.4948 5.03516C13.0618 5.03516 13.5514 5.16034 13.9637 5.4107C14.3787 5.65843 14.6988 6.00499 14.924 6.45037C15.1491 6.89576 15.2617 7.4123 15.2617 8C15.2617 8.55344 15.1505 9.05417 14.9281 9.50219C14.7083 9.95021 14.391 10.306 13.9759 10.5695C13.5636 10.8331 13.0699 10.9648 12.4948 10.9648Z" fill="#FC5E38"/>
</g>
<defs>
<clipPath id="clip0_802_55">
<rect width="16" height="16" fill="white"/>
</clipPath>
</defs>
</svg>
